<?xml version="1.0" standalone="no"?>
<!DOCTYPE svg PUBLIC "-//W3C//DTD SVG 20010904//EN"
 "http://www.w3.org/TR/2001/REC-SVG-20010904/DTD/svg10.dtd">
<svg version="1.0" xmlns="http://www.w3.org/2000/svg"
 width="1024.000000pt" height="1024.000000pt" viewBox="0 0 1024.000000 1024.000000"
 preserveAspectRatio="xMidYMid meet">
<metadata>
Created by potrace 1.11, written by Peter Selinger 2001-2013
</metadata>
<g transform="translate(0.000000,1024.000000) scale(0.100000,-0.100000)"
fill="#000000" stroke="none">
<path d="M3996 8521 c-3 -5 -118 -537 -256 -1182 -138 -646 -262 -1214 -276
-1263 -50 -178 -147 -313 -265 -369 -111 -52 -261 -59 -382 -18 -149 51 -247
186 -247 338 l0 53 -355 0 -355 0 0 -114 c0 -268 84 -481 260 -656 216 -216
532 -324 905 -307 353 16 615 125 825 343 132 137 217 283 286 490 26 79 430
1933 581 2667 l6 27 -361 0 c-199 0 -363 -4 -366 -9z"/>
<path d="M6569 6714 l-1795 -1795 28 88 c32 97 579 2653 572 2665 -3 5 -113 8
-245 8 -194 0 -239 3 -239 13 0 15 87 429 96 460 5 15 -3 17 -70 17 -70 0 -76
-2 -81 -22 -3 -13 -28 -129 -55 -258 -460 -2154 -429 -2014 -476 -2155 -57
-175 -179 -382 -306 -520 -72 -79 -247 -207 -353 -260 -171 -84 -389 -134
-625 -142 -176 -6 -283 4 -429 38 -46 10 -86 17 -88 15 -2 -2 9 -12 26 -22 22
-13 35 -34 51 -78 50 -141 186 -312 326 -412 267 -191 699 -255 1076 -160 l89
22 -1093 -1093 -1093 -1093 69 -69 c43 -43 67 -75 63 -84 -3 -9 35 -54 106
-125 l112 -112 3243 3243 3242 3242 -65 65 c-41 41 -63 70 -60 79 4 10 -34 55
-107 128 -62 62 -115 113 -118 113 -3 0 -813 -808 -1801 -1796z"/>
<path d="M6605 4999 c-107 -14 -269 -56 -369 -95 -420 -166 -683 -483 -726
-873 -32 -295 65 -563 277 -761 142 -133 298 -217 544 -296 529 -168 623 -207
723 -296 81 -72 111 -139 111 -248 0 -76 -4 -93 -32 -150 -76 -154 -245 -251
-488 -280 -180 -22 -349 3 -500 74 -162 77 -259 179 -309 327 l-25 74 -350 3
c-278 2 -351 0 -351 -10 0 -47 33 -217 56 -288 112 -357 413 -619 830 -724
173 -43 246 -51 484 -50 188 0 246 4 355 23 509 89 887 374 1013 761 69 212
68 488 -3 676 -77 205 -239 363 -500 489 -139 67 -204 91 -495 180 -233 72
-317 105 -406 161 -136 84 -198 183 -199 314 0 66 5 85 33 142 52 107 152 183
307 235 74 25 92 27 245 27 151 0 172 -2 245 -27 203 -67 354 -218 395 -394
l12 -53 344 0 c189 0 344 3 344 8 0 4 -5 48 -11 97 -61 500 -457 863 -1034
950 -110 16 -403 18 -520 4z"/>
<path d="M6710 4221 c-78 -12 -180 -63 -229 -116 -36 -39 -41 -50 -41 -91 0
-115 96 -178 430 -284 107 -33 254 -82 325 -107 127 -45 133 -46 290 -53 185
-8 255 -23 369 -83 140 -73 245 -202 277 -345 l12 -52 338 0 c186 0 340 3 343
8 8 13 -13 162 -34 245 -26 98 -74 206 -134 295 -40 60 -181 208 -247 257 -14
11 -30 29 -36 39 -10 18 -12 16 -22 -20 -6 -21 -11 -44 -11 -50 0 -7 -18 -30
-41 -52 -60 -60 -87 -63 -505 -60 -328 3 -362 5 -397 22 -51 25 -85 73 -104
142 -50 195 -194 299 -426 309 -56 2 -127 0 -157 -4z m119 -195 c-16 -13 -160
-82 -148 -71 15 16 129 75 143 75 5 0 7 -2 5 -4z"/>
<path d="M6225 2744 c49 -131 154 -272 274 -369 87 -70 227 -155 256 -155 35
0 141 58 174 95 17 19 35 53 41 76 37 135 -63 201 -529 348 -123 39 -227 71
-232 71 -5 0 2 -30 16 -66z"/>
<path d="M8096 2485 c-34 -302 -96 -486 -224 -664 -173 -241 -435 -425 -737
-516 -385 -117 -830 -126 -1215 -25 -41 10 -76 17 -79 15 -2 -3 8 -34 23 -69
93 -218 307 -426 553 -537 362 -163 912 -183 1323 -49 407 133 692 411 786
765 24 89 27 119 28 270 1 134 -3 184 -17 234 -24 87 -58 170 -98 238 -42 71
-166 198 -241 248 -50 33 -59 44 -76 94 l-19 56 -7 -60z m-410 -1194 c-19 -21
-155 -94 -196 -106 -14 -4 13 13 60 37 47 24 99 53 115 65 37 28 43 29 21 4z"/>
</g>
</svg>
